<?xml version="1.0" encoding="UTF-8" standalone="no"?>
<!-- Generated by IcoMoon.io -->

<svg
   xmlns:dc="http://purl.org/dc/elements/1.1/"
   xmlns:cc="http://creativecommons.org/ns#"
   xmlns:rdf="http://www.w3.org/1999/02/22-rdf-syntax-ns#"
   xmlns:svg="http://www.w3.org/2000/svg"
   xmlns="http://www.w3.org/2000/svg"
   xmlns:sodipodi="http://sodipodi.sourceforge.net/DTD/sodipodi-0.dtd"
   xmlns:inkscape="http://www.inkscape.org/namespaces/inkscape"
   version="1.1"
   width="17"
   height="17"
   viewBox="0 0 17 17"
   id="svg2985"
   inkscape:version="0.48.4 r9939"
   sodipodi:docname="partition.svg">
  <metadata
     id="metadata2995">
    <rdf:RDF>
      <cc:Work
         rdf:about="">
        <dc:format>image/svg+xml</dc:format>
        <dc:type
           rdf:resource="http://purl.org/dc/dcmitype/StillImage" />
        <dc:title></dc:title>
      </cc:Work>
    </rdf:RDF>
  </metadata>
  <defs
     id="defs2993" />
  <sodipodi:namedview
     pagecolor="#ffffff"
     bordercolor="#666666"
     borderopacity="1"
     objecttolerance="10"
     gridtolerance="10"
     guidetolerance="10"
     inkscape:pageopacity="0"
     inkscape:pageshadow="2"
     inkscape:window-width="1920"
     inkscape:window-height="1056"
     id="namedview2991"
     showgrid="false"
     inkscape:zoom="26.038167"
     inkscape:cx="6.3938074"
     inkscape:cy="7.7028411"
     inkscape:window-x="0"
     inkscape:window-y="24"
     inkscape:window-maximized="1"
     inkscape:current-layer="layer1" />
  <g
     id="g2987" />
  <g
     inkscape:groupmode="layer"
     id="layer1"
     inkscape:label="Layer"
     style="display:inline;opacity:1">
    <g
       style="font-size:22.53061295px;font-style:normal;font-variant:normal;font-weight:normal;font-stretch:normal;line-height:125%;letter-spacing:0px;word-spacing:0px;writing-mode:lr-tb;fill:#000000;fill-opacity:1;stroke:none;display:inline;font-family:Norasi;-inkscape-font-specification:Norasi"
       id="text3193">
      <path
         d="m 16.412196,15.482904 0,0.428082 -5.745307,0 0,-0.428082 c 0.600806,-0.03004 1.013867,-0.09763 1.239184,-0.202775 0.225295,-0.105142 0.337948,-0.292897 0.337959,-0.563266 -1.1e-5,-0.345467 -0.142705,-0.848651 -0.428081,-1.509551 l -0.923755,-2.140408 -5.903021,0 -1.0589388,2.591021 c -0.1051462,0.360491 -0.1577176,0.660899 -0.1577143,0.901224 -3.3e-6,0.615838 0.5031799,0.923756 1.509551,0.923755 l 0,0.428082 -4.43853072,0 0,-0.428082 C 1.384276,15.467884 1.804847,15.265109 2.1052565,14.874578 2.4056628,14.469028 2.9163562,13.440131 3.6373382,11.787884 l 4.6863675,-11.06253118 0.4731429,0 5.6101224,12.81991918 c 0.375496,0.826124 0.675904,1.351837 0.901225,1.577142 0.225291,0.210287 0.59329,0.33045 1.104,0.36049 m -11.0625312,-5.339755 5.2271022,0 L 7.9632159,3.9246999 5.3496648,10.143149"
         style="fill:#000000;font-family:Norasi;-inkscape-font-specification:Norasi"
         id="path3257" />
    </g>
  </g>
</svg>
