<?xml version="1.0" encoding="UTF-8" standalone="no"?>
<!-- Generated by IcoMoon.io -->

<svg
   xmlns:dc="http://purl.org/dc/elements/1.1/"
   xmlns:cc="http://creativecommons.org/ns#"
   xmlns:rdf="http://www.w3.org/1999/02/22-rdf-syntax-ns#"
   xmlns:svg="http://www.w3.org/2000/svg"
   xmlns="http://www.w3.org/2000/svg"
   xmlns:sodipodi="http://sodipodi.sourceforge.net/DTD/sodipodi-0.dtd"
   xmlns:inkscape="http://www.inkscape.org/namespaces/inkscape"
   version="1.1"
   width="17"
   height="17"
   viewBox="0 0 17 17"
   id="svg2985"
   inkscape:version="0.48.4 r9939"
   sodipodi:docname="actor.svg">
  <metadata
     id="metadata2995">
    <rdf:RDF>
      <cc:Work
         rdf:about="">
        <dc:format>image/svg+xml</dc:format>
        <dc:type
           rdf:resource="http://purl.org/dc/dcmitype/StillImage" />
        <dc:title></dc:title>
      </cc:Work>
    </rdf:RDF>
  </metadata>
  <defs
     id="defs2993" />
  <sodipodi:namedview
     pagecolor="#ffffff"
     bordercolor="#666666"
     borderopacity="1"
     objecttolerance="10"
     gridtolerance="10"
     guidetolerance="10"
     inkscape:pageopacity="0"
     inkscape:pageshadow="2"
     inkscape:window-width="1920"
     inkscape:window-height="1056"
     id="namedview2991"
     showgrid="false"
     inkscape:zoom="26.038167"
     inkscape:cx="6.3938074"
     inkscape:cy="7.7028411"
     inkscape:window-x="0"
     inkscape:window-y="24"
     inkscape:window-maximized="1"
     inkscape:current-layer="layer1" />
  <g
     id="g2987" />
  <g
     inkscape:groupmode="layer"
     id="layer1"
     inkscape:label="Layer"
     style="display:inline;opacity:1">
    <g
       style="font-size:22.53061295px;font-style:normal;font-variant:normal;font-weight:normal;font-stretch:normal;line-height:125%;letter-spacing:0px;word-spacing:0px;writing-mode:lr-tb;fill:#000000;fill-opacity:1;stroke:none;display:inline;font-family:Norasi;-inkscape-font-specification:Norasi"
       id="text3193">
      <path
         d="m 6.8263363,9.3545776 0,4.1231024 c -4.6e-6,0.796083 0.1276688,1.321797 0.3830204,1.577143 0.2703621,0.255347 0.8486473,0.398041 1.7348572,0.428081 l 0,0.428082 -6.3085716,0 0,-0.428082 c 0.856162,-0.0751 1.3818758,-0.232815 1.5771429,-0.473143 0.2102835,-0.255345 0.3154263,-0.856161 0.3154285,-1.802449 l 0,-9.7782856 C 4.5282115,2.632958 4.4155585,2.1222646 4.1902545,1.8969447 3.9799671,1.6566324 3.4617635,1.4989183 2.6356423,1.4238018 l 0,-0.42808162 5.9480818,0 c 1.0664416,1.491e-5 2.0502769,0.15021882 2.9515099,0.45061222 0.901215,0.285402 1.577132,0.6759322 2.027756,1.1715919 0.615824,0.6308698 0.923742,1.4569915 0.923755,2.4783674 -1.3e-5,0.7360101 -0.195278,1.4269482 -0.585796,2.0728164 -0.375522,0.6308653 -0.893725,1.1265383 -1.554613,1.4870205 -0.871192,0.4956802 -2.192987,0.7435167 -3.9653874,0.7435102 -0.6308627,6.5e-6 -1.1490663,-0.015014 -1.5546123,-0.045061 m 0,-6.7817145 0,5.88049 c 0.135179,7.4e-6 0.3379543,0.015028 0.6083265,0.045061 0.2853823,0.015028 0.5106882,0.022538 0.6759184,0.022531 2.6285628,7.4e-6 3.9428478,-1.1039915 3.9428568,-3.3120001 -9e-6,-1.17158 -0.360499,-2.0277424 -1.081469,-2.5684899 C 10.250981,2.099734 9.1244519,1.8293669 7.5923771,1.8293529 7.2919639,1.8293669 7.0891886,1.8819383 6.9840506,1.9870671 6.8789031,2.0772034 6.8263317,2.2724685 6.8263363,2.5728631"
         style=""
         id="path3288" />
    </g>
  </g>
</svg>
